<svg width="354" height="115" viewBox="0 0 354 115" fill="none" xmlns="http://www.w3.org/2000/svg">
<path d="M153.483 112.52H124.872L142.767 2.81836H171.376L153.483 112.52Z" fill="#2E575A"/>
<path d="M257.187 5.50149C251.544 3.28183 242.593 0.831055 231.526 0.831055C203.272 0.831055 183.376 15.7684 183.254 37.1242C183.019 52.8805 197.499 61.632 208.329 66.8856C219.398 72.2541 223.16 75.7581 223.16 80.5433C223.048 87.8925 214.216 91.2802 205.979 91.2802C194.556 91.2802 188.436 89.5336 179.135 85.4448L175.367 83.6921L171.364 108.318C178.074 111.349 190.437 114.038 203.272 114.156C233.292 114.156 252.836 99.4499 253.068 76.6918C253.182 64.2037 245.536 54.6349 229.052 46.8157C219.046 41.7962 212.917 38.4117 212.917 33.2759C213.035 28.607 218.101 23.8249 229.397 23.8249C238.698 23.5907 245.531 25.8072 250.708 28.0253L253.296 29.1902L257.187 5.50149Z" fill="#2E575A"/>
<path d="M295.228 73.6566C297.584 67.3544 306.65 42.963 306.65 42.963C306.532 43.1972 309.002 36.5444 310.415 32.4603L312.414 41.9128C312.414 41.9128 317.832 68.1718 319.009 73.6566C314.537 73.6566 300.879 73.6566 295.228 73.6566ZM330.544 2.81836H308.414C301.589 2.81836 296.404 4.80069 293.46 11.9203L250.963 112.518H280.983C280.983 112.518 285.925 98.9786 286.988 96.0625C290.281 96.0625 319.484 96.0625 323.721 96.0625C324.542 99.914 327.135 112.518 327.135 112.518H353.625L330.544 2.81836Z" fill="#2E575A"/>
<path d="M100.973 2.81836L72.9536 77.6244L69.8918 62.4528C64.7117 44.9468 48.4657 25.927 30.3361 16.4698L56.0005 112.404H86.2552L131.226 2.81836H100.973Z" fill="#2E575C"/>
<path d="M46.9358 2.81836H0.904513L0.433594 5.03517C36.3409 14.1398 60.1216 36.086 69.8921 62.4644L59.8854 12.0408C58.238 5.03362 53.1752 3.0495 46.9358 2.81836Z" fill="#2E575A"/>
</svg>
