<svg width="328" height="105" viewBox="0 0 328 105" fill="none" xmlns="http://www.w3.org/2000/svg">
<path d="M141.806 103.484H115.297L131.878 1.84131H158.385L141.806 103.484Z" fill="white"/>
<path d="M237.892 4.32734C232.663 2.27074 224.37 0 214.116 0C187.938 0 169.503 13.84 169.39 33.627C169.173 48.2258 182.589 56.3344 192.623 61.2021C202.879 66.1761 206.365 69.4227 206.365 73.8564C206.26 80.6657 198.078 83.8045 190.445 83.8045C179.862 83.8045 174.191 82.1863 165.573 78.3979L162.083 76.7739L158.373 99.5905C164.591 102.399 176.045 104.891 187.938 105C215.752 105 233.861 91.3741 234.075 70.2879C234.181 58.7172 227.097 49.8513 211.824 42.6065C202.552 37.9558 196.874 34.8199 196.874 30.0614C196.983 25.7355 201.677 21.3047 212.143 21.3047C220.761 21.0877 227.092 23.1414 231.889 25.1965L234.287 26.2759L237.892 4.32734Z" fill="white"/>
<path d="M273.138 67.4756C275.321 61.6364 283.722 39.0368 283.722 39.0368C283.611 39.2538 285.9 33.0898 287.209 29.3057L289.062 38.0638C289.062 38.0638 294.082 62.3938 295.172 67.4756C291.029 67.4756 278.374 67.4756 273.138 67.4756ZM305.86 1.84131H285.355C279.032 1.84131 274.228 3.67802 271.5 10.2746L232.125 103.483H259.94C259.94 103.483 264.519 90.9375 265.503 88.2356C268.555 88.2356 295.613 88.2356 299.538 88.2356C300.299 91.8041 302.701 103.483 302.701 103.483H327.246L305.86 1.84131V1.84131Z" fill="white"/>
<path d="M93.1533 1.84131L67.1926 71.1519L64.3558 57.0949C59.5562 40.875 44.5036 23.2523 27.7058 14.4899L51.4849 103.376H79.517L121.184 1.84131H93.1533V1.84131Z" fill="white"/>
<path d="M43.0861 1.84131H0.436324L0 3.89527C33.2695 12.331 55.3032 32.6651 64.3559 57.1056L55.0844 10.3863C53.5579 3.89383 48.8671 2.05547 43.0861 1.84131Z" fill="white"/>
</svg>
